<?xml version="1.0" encoding="iso-8859-1"?>
<!-- Generator: Adobe Illustrator 19.0.0, SVG Export Plug-In . SVG Version: 6.00 Build 0)  -->
<svg version="1.1" id="Layer_1" xmlns="http://www.w3.org/2000/svg" xmlns:xlink="http://www.w3.org/1999/xlink" x="0px" y="0px"
	 viewBox="0 0 512 512" style="enable-background:new 0 0 512 512;" xml:space="preserve">
<g>
	<path style="fill:#FFDD09;" d="M486.834,151.864l-18.224,25.166c3.471,18.224,17.356,59.01,17.356,78.969
		c0,134.508-97.193,242.983-216.949,242.983C403.525,498.983,512,390.508,512,256C512,227.363,495.512,177.031,486.834,151.864"/>
	<path style="fill:#FFDD09;" d="M417.41,264.678l-61.614-98.061c-23.431-33.844-39.051-90.251-11.281-119.756
		c2.603-2.603,4.339-4.339,6.942-6.942c-30.373-17.356-64.217-26.902-99.797-26.902C131.905,13.017,34.712,121.492,34.712,256
		s97.193,242.983,216.949,242.983S468.61,390.508,468.61,256c0-28.637-0.868-35.58-8.678-60.746L417.41,264.678z"/>
</g>
<path style="fill:#FFFFFF;" d="M34.712,256c0-134.508,97.193-242.983,216.949-242.983C117.153,13.017,8.678,121.492,8.678,256
	s108.475,242.983,242.983,242.983C131.905,498.983,34.712,390.508,34.712,256"/>
<path style="fill:#FD9808;" d="M480.759,174.427l-18.224,25.166c3.471,18.224,6.075,37.315,6.075,56.407
	c0,134.508-97.193,242.983-216.949,242.983c134.508,0,242.983-108.475,242.983-242.983
	C494.644,227.363,489.437,199.593,480.759,174.427"/>
<path style="fill:#54C9FD;" d="M407.864,247.322l-60.746-78.102c-26.034-33.844-22.563-90.251,7.81-119.756l0,0
	c33.844-32.976,62.481-35.58,96.325-2.603l0,0c30.373,29.505,33.844,85.912,7.81,119.756L407.864,247.322z"/>
<path style="fill:#33A9F8;" d="M415.675,264.678l69.424-98.061c26.034-33.844,22.563-90.251-7.81-119.756l0,0
	c-21.695-20.827-51.2-28.637-78.969-23.431c17.356-2.603,34.712,4.339,52.936,23.431l0,0c30.373,29.505,33.844,85.912,7.81,119.756
	l-52.068,80.705"/>
<path style="fill:#FFDD09;" d="M425.22,108.475c0,19.092-9.546,34.712-21.695,34.712s-21.695-15.62-21.695-34.712
	s9.546-34.712,21.695-34.712S425.22,89.383,425.22,108.475"/>
<path style="fill:#FD9808;" d="M415.675,73.763c-2.603,0-5.207,0-7.81,0.868c9.546,3.471,16.488,17.356,16.488,33.844
	s-6.942,30.373-16.488,33.844c2.603,0.868,5.207,0.868,7.81,0.868c19.092,0,34.712-15.62,34.712-34.712
	S434.766,73.763,415.675,73.763"/>
<path d="M251.661,507.661c-5.207,0-8.678-3.471-8.678-8.678V13.017c0-5.207,3.471-8.678,8.678-8.678
	c5.207,0,8.678,3.471,8.678,8.678v485.966C260.339,504.19,256.868,507.661,251.661,507.661z"/>
<path d="M251.661,507.661c-0.868,0-2.603,0-3.471,0h-1.736c-1.736,0-3.471-0.868-5.207-1.736
	C164.881,444.312,121.492,353.193,121.492,256S164.881,67.688,240.38,6.075c1.736-0.868,3.471-1.736,5.207-1.736h1.736
	c0.868,0,2.603,0,3.471,0c5.207,0,8.678,3.471,8.678,8.678s-3.471,8.678-8.678,8.678c-0.868,0-1.736,0-2.603,0
	C178.766,79.837,138.847,164.881,138.847,256s39.919,176.163,110.21,234.305c0.868,0,1.736,0,2.603,0
	c5.207,0,8.678,3.471,8.678,8.678C260.339,504.19,256.868,507.661,251.661,507.661z"/>
<path d="M251.661,151.864c-65.085,0-127.566-19.092-181.369-55.539c-3.471-3.471-4.339-8.678-1.736-12.149
	c2.603-4.339,7.81-5.207,12.149-2.603c50.332,34.712,110.21,52.936,170.956,52.936c26.034,0,51.2-3.471,75.498-9.546
	c4.339-0.868,9.546,1.736,10.414,6.075c0.868,4.339-1.736,9.546-6.075,10.414C305.464,148.393,278.563,151.864,251.661,151.864z"/>
<path d="M70.292,426.956c-2.603,0-5.207-0.868-6.942-3.471c-2.603-3.471-1.736-9.546,1.736-12.149
	c55.539-39.051,119.756-59.878,186.576-59.878s131.037,20.827,185.708,59.878c4.339,2.603,5.207,7.81,1.736,12.149
	c-2.603,4.339-7.81,5.207-12.149,1.736c-52.068-36.447-112.814-56.407-176.163-56.407S126.698,387.905,74.631,425.22
	C73.763,426.088,72.027,426.956,70.292,426.956z"/>
<path d="M251.661,507.661c-5.207,0-8.678-3.471-8.678-8.678c0-5.207,3.471-8.678,8.678-8.678c0.868,0,1.736,0,2.603,0
	c70.292-58.142,110.21-143.186,110.21-234.305c0-5.207,3.471-8.678,8.678-8.678c5.207,0,8.678,3.471,8.678,8.678
	c0,97.193-43.39,188.312-118.888,249.925c-1.736,0.868-3.471,1.736-5.207,1.736H256
	C254.264,507.661,252.529,507.661,251.661,507.661z"/>
<path d="M494.644,264.678H8.678C3.471,264.678,0,261.207,0,256s3.471-8.678,8.678-8.678h485.966c5.207,0,8.678,3.471,8.678,8.678
	S499.851,264.678,494.644,264.678z"/>
<path d="M251.661,507.661C112.814,507.661,0,394.847,0,256S112.814,4.339,251.661,4.339c40.786,0,78.969,9.546,115.417,27.769
	c2.603,1.736,4.339,4.339,4.339,6.942c0,2.603-0.868,6.075-3.471,7.81c-2.603,1.736-5.207,4.339-6.942,6.075
	c-26.902,26.902-30.373,78.102-6.942,108.475l62.481,88.515l57.275-80.705c1.736-2.603,5.207-4.339,8.678-3.471
	s6.075,2.603,6.942,6.075c9.546,26.902,14.753,55.539,14.753,85.044C503.322,394.847,390.508,507.661,251.661,507.661z
	 M251.661,21.695C122.359,21.695,17.356,126.698,17.356,256s105.003,234.305,234.305,234.305S485.966,385.302,485.966,256
	c0-20.827-2.603-42.522-8.678-62.481l-53.803,76.366c-3.471,4.339-11.281,4.339-13.885,0l-69.424-98.061
	c-27.77-36.447-24.298-96.325,6.942-129.302C317.614,28.637,285.505,21.695,251.661,21.695z"/>
<path d="M416.542,151.864c-24.298,0-43.39-19.092-43.39-43.39s19.092-43.39,43.39-43.39c24.298,0,43.39,19.092,43.39,43.39
	S440.841,151.864,416.542,151.864z M416.542,82.441c-14.753,0-26.034,11.281-26.034,26.034s11.281,26.034,26.034,26.034
	c14.753,0,26.034-11.281,26.034-26.034S431.295,82.441,416.542,82.441z"/>
<path d="M416.542,273.356c-2.603,0-5.207-1.736-6.942-3.471l-69.424-98.061c-28.637-37.315-24.298-98.929,8.678-131.037
	c37.315-36.447,98.061-36.447,135.376,0c32.976,32.976,37.315,93.722,8.678,131.037l-69.424,98.061
	C421.749,271.62,419.146,273.356,416.542,273.356z M416.542,30.373c-19.959,0-39.919,7.81-55.539,22.563
	c-26.902,26.034-30.373,78.102-6.942,108.475l62.481,88.515l62.481-88.515c23.431-30.373,19.959-82.441-6.942-108.475
	C456.461,38.183,436.502,30.373,416.542,30.373z"/>
<g>
</g>
<g>
</g>
<g>
</g>
<g>
</g>
<g>
</g>
<g>
</g>
<g>
</g>
<g>
</g>
<g>
</g>
<g>
</g>
<g>
</g>
<g>
</g>
<g>
</g>
<g>
</g>
<g>
</g>
</svg>
